name D:\school\WTK\thesis\model\3dpredictsim\Results\MidTarsalJoint\Fal_s1_bCst_PF_Natali2010_ls148_MT_k20_MTP_T10_ig24.mot
datacolumns 128
datarows 4
range 0.59911065 0.63505729
endheader
time	pelvis_tilt	pelvis_list	pelvis_rotation	pelvis_tx	pelvis_ty	pelvis_tz	hip_flexion_l	hip_adduction_l	hip_rotation_l	hip_flexion_r	hip_adduction_r	hip_rotation_r	knee_angle_l	knee_angle_r	ankle_angle_l	ankle_angle_r	subtalar_angle_l	subtalar_angle_r	mtj_angle_l	mtj_angle_r	mtp_angle_l	mtp_angle_r	lumbar_extension	lumbar_bending	lumbar_rotation	arm_flex_l	arm_add_l	arm_rot_l	arm_flex_r	arm_add_r	arm_rot_r	elbow_flex_l	elbow_flex_r	pro_sup_l	pro_sup_r	glut_med1_l/activation	glut_med2_l/activation	glut_med3_l/activation	glut_min1_l/activation	glut_min2_l/activation	glut_min3_l/activation	semimem_l/activation	semiten_l/activation	bifemlh_l/activation	bifemsh_l/activation	sar_l/activation	add_long_l/activation	add_brev_l/activation	add_mag1_l/activation	add_mag2_l/activation	add_mag3_l/activation	tfl_l/activation	pect_l/activation	grac_l/activation	glut_max1_l/activation	glut_max2_l/activation	glut_max3_l/activation	iliacus_l/activation	psoas_l/activation	quad_fem_l/activation	gem_l/activation	peri_l/activation	rect_fem_l/activation	vas_med_l/activation	vas_int_l/activation	vas_lat_l/activation	med_gas_l/activation	lat_gas_l/activation	soleus_l/activation	tib_post_l/activation	flex_dig_l/activation	flex_hal_l/activation	tib_ant_l/activation	per_brev_l/activation	per_long_l/activation	per_tert_l/activation	ext_dig_l/activation	ext_hal_l/activation	ercspn_l/activation	intobl_l/activation	extobl_l/activation	glut_med1_r/activation	glut_med2_r/activation	glut_med3_r/activation	glut_min1_r/activation	glut_min2_r/activation	glut_min3_r/activation	semimem_r/activation	semiten_r/activation	bifemlh_r/activation	bifemsh_r/activation	sar_r/activation	add_long_r/activation	add_brev_r/activation	add_mag1_r/activation	add_mag2_r/activation	add_mag3_r/activation	tfl_r/activation	pect_r/activation	grac_r/activation	glut_max1_r/activation	glut_max2_r/activation	glut_max3_r/activation	iliacus_r/activation	psoas_r/activation	quad_fem_r/activation	gem_r/activation	peri_r/activation	rect_fem_r/activation	vas_med_r/activation	vas_int_r/activation	vas_lat_r/activation	med_gas_r/activation	lat_gas_r/activation	soleus_r/activation	tib_post_r/activation	flex_dig_r/activation	flex_hal_r/activation	tib_ant_r/activation	per_brev_r/activation	per_long_r/activation	per_tert_r/activation	ext_dig_r/activation	ext_hal_r/activation	ercspn_r/activation	intobl_r/activation	extobl_r/activation	
          0.59911065	         -2.92159747	          3.47106382	         -5.92522904	          0.74888831	          0.91756597	         -0.00010611	         30.37212385	          5.08905333	         -2.72962774	        -13.72839740	         -1.41218626	          6.40571515	        -12.84670524	        -17.34750567	          5.09792307	         -9.73440617	         -7.55720626	          0.48012757	         -1.36963176	          9.67587713	          2.53557442	          8.04185004	         -2.09051988	         -1.38403566	          2.17282965	         -3.84082061	        -13.46197173	          5.62221305	          5.12917104	        -13.45686442	         17.86235282	         16.19262198	         36.67048571	         86.51662706	         86.51662706	          0.05998515	          0.05998505	          0.05000028	          0.05998521	          0.05998517	          0.05993896	          0.22161474	          0.12693625	          0.23134859	          0.11379331	          0.05000042	          0.16517245	          0.28489412	          0.28053365	          0.25735240	          0.14318748	          0.05000023	          0.05007601	          0.18334673	          0.05000240	          0.08957403	          0.19809370	          0.05434567	          0.05000178	          0.16916611	          0.32299239	          0.14065787	          0.05000060	          0.07776876	          0.07924809	          0.07575098	          0.07736757	          0.07851279	          0.06406636	          0.05000009	          0.05000033	          0.05000066	          0.43532396	          0.28182921	          0.18797325	          0.12487221	          0.49483330	          0.23417675	          0.05000004	          0.12266721	          0.11306235	          0.18787593	          0.05026997	          0.05000011	          0.25209360	          0.15356244	          0.06595676	          0.05000633	          0.05000053	          0.05000033	          0.05952897	          0.09596449	          0.06635982	          0.06252827	          0.05000118	          0.05000199	          0.05000079	          0.25923095	          0.06097582	          0.05000212	          0.05000118	          0.05000074	          0.05000054	          0.53395091	          0.57170239	          0.05000011	          0.05000045	          0.05000151	          0.44112941	          0.18699458	          0.19254069	          0.17797273	          0.37016215	          0.46484229	          0.30541008	          0.23125675	          0.24103159	          0.30427410	          0.05000009	          0.05927808	          0.05076661	          0.05000055	          0.05000013	          0.05000053	          0.05000001	          0.05000015	          0.06888738	
          0.61109286	         -2.92811226	          3.52948796	         -6.20488976	          0.76734315	          0.91588035	         -0.00026614	         29.79158022	          5.49743573	         -2.45306443	        -14.26574561	         -1.85591260	          6.25137731	        -13.56908117	        -18.02140686	          4.48148391	        -10.20614912	         -8.10298183	          2.08444802	         -1.51893295	          7.84209209	          2.50730248	         10.57634618	         -1.85997138	         -1.53718207	          2.25981172	         -4.74994364	        -13.45805691	          5.36769414	          4.81791071	        -13.47724102	         18.17556025	         15.68240960	         37.68064123	         86.51662706	         86.51662706	          0.05000002	          0.05000006	          0.09917909	          0.05000008	          0.05000009	          0.05000011	          0.18472466	          0.10580642	          0.19283818	          0.09485134	          0.07191348	          0.13767801	          0.32450540	          0.33375113	          0.22071001	          0.13300539	          0.05000042	          0.07855389	          0.15438530	          0.05066047	          0.13269018	          0.18684285	          0.05000029	          0.05998559	          0.53812120	          0.26922695	          0.11724415	          0.05998542	          0.06483775	          0.06646955	          0.06488512	          0.07196436	          0.07196443	          0.06706971	          0.05998517	          0.05191679	          0.05903352	          0.45479596	          0.29763968	          0.23815203	          0.10408609	          0.42606278	          0.19519568	          0.05000001	          0.10224794	          0.09424192	          0.15660212	          0.05000157	          0.05226973	          0.21013015	          0.12800050	          0.05497792	          0.05000243	          0.05000054	          0.05000064	          0.05000013	          0.07999049	          0.14544537	          0.05946927	          0.05998535	          0.05998492	          0.05998559	          0.21607935	          0.05082665	          0.05000144	          0.05276785	          0.05993496	          0.05998521	          0.44506928	          0.53626393	          0.05998525	          0.05998168	          0.05000071	          0.36769874	          0.21461713	          0.21456848	          0.19228225	          0.30854493	          0.38746456	          0.25457139	          0.19276167	          0.20090965	          0.25362476	          0.05000004	          0.05000017	          0.05000056	          0.05000017	          0.05000008	          0.05000022	          0.05001765	          0.07196428	          0.07196446	
          0.62307507	         -2.93016441	          3.58742348	         -6.45335925	          0.78617537	          0.91414290	         -0.00038132	         29.06433609	          5.79188183	         -2.13019579	        -14.74411935	         -2.29140113	          6.08742301	        -14.32786637	        -18.78872146	          3.92465409	        -10.70741882	         -8.68443562	          3.64927494	         -1.74495191	          5.69811325	          2.58258723	         13.35454853	         -1.60809178	         -1.70026054	          2.33369126	         -5.70716599	        -13.46718970	          5.18907250	          4.40967379	        -13.49780637	         18.39166130	         15.24230570	         38.70194414	         86.51662706	         86.51662706	          0.27399614	          0.25558171	          0.24887534	          0.41815367	          0.25480281	          0.18677202	          0.15397533	          0.08819412	          0.16073825	          0.07907228	          0.05994333	          0.11476012	          0.27048809	          0.27819488	          0.18397111	          0.15727363	          0.05000076	          0.06547884	          0.12868698	          0.14510407	          0.16175079	          0.16313969	          0.05001671	          0.05000110	          0.44854520	          0.22441135	          0.18714086	          0.05000031	          0.05404503	          0.05540522	          0.05408449	          0.05998515	          0.05998524	          0.05590528	          0.05000014	          0.05000043	          0.05000050	          0.52128703	          0.40089508	          0.19851057	          0.42508474	          0.52607893	          0.21717751	          0.06136042	          0.12657430	          0.07855435	          0.31006078	          0.05000112	          0.05000023	          0.38352716	          0.10669378	          0.05996973	          0.05000223	          0.05000027	          0.05000024	          0.05000171	          0.07484845	          0.12123456	          0.05000040	          0.05000052	          0.05000083	          0.05000069	          0.18011088	          0.06051376	          0.05000111	          0.05000131	          0.05000093	          0.05000067	          0.37099222	          0.52703843	          0.05000026	          0.05000086	          0.05000091	          0.30649135	          0.17889186	          0.17885132	          0.16027485	          0.25718434	          0.32296698	          0.21219526	          0.16067446	          0.16746626	          0.21140634	          0.06114888	          0.07652166	          0.10017009	          0.05000103	          0.11196193	          0.05000290	          0.05847777	          0.05998506	          0.05998523	
          0.63505729	         -2.93007615	          3.63961955	         -6.66361404	          0.80512132	          0.91243816	         -0.00051590	         28.32697816	          6.05207021	         -1.80978050	        -15.11345868	         -2.71009847	          5.93866876	        -15.06179004	        -19.70649467	          3.31309519	        -11.26826502	         -9.29652071	          5.16465600	         -1.67069967	          3.33045995	          2.63702542	         16.19353386	         -1.36141191	         -1.86597927	          2.39713605	         -6.65085904	        -13.47906523	          5.09824037	          3.94650140	        -13.52565635	         18.52858297	         14.83639592	         39.70875511	         86.51662706	         86.51662706	          0.37275323	          0.37491689	          0.37335554	          0.34854850	          0.25057386	          0.25637394	          0.12834454	          0.07942762	          0.13398171	          0.06591485	          0.05000077	          0.09565714	          0.22546254	          0.23188679	          0.16005157	          0.17996817	          0.05000072	          0.05458031	          0.10727006	          0.24015071	          0.21065827	          0.18688565	          0.05000017	          0.05000019	          0.37388010	          0.18705577	          0.15602074	          0.05000014	          0.11878339	          0.12944045	          0.12138621	          0.05000006	          0.05000015	          0.05000001	          0.05000007	          0.05000021	          0.05000022	          0.60846842	          0.33590658	          0.19092068	          0.58297437	          0.55780396	          0.34340984	          0.07947118	          0.10550466	          0.06547815	          0.27841154	          0.05000051	          0.05000023	          0.31968527	          0.08893362	          0.05000071	          0.05000166	          0.05000027	          0.05000026	          0.05000012	          0.06238943	          0.13363951	          0.08948186	          0.05063655	          0.05038989	          0.08607374	          0.15012961	          0.05046474	          0.05000088	          0.05001977	          0.05000676	          0.05000428	          0.30923669	          0.46262098	          0.05000040	          0.05000122	          0.05000021	          0.25547258	          0.14911344	          0.14907964	          0.13359542	          0.21437326	          0.26920571	          0.17687308	          0.13392851	          0.13958987	          0.17621562	          0.11267970	          0.12595113	          0.08359274	          0.05416308	          0.16688714	          0.07378570	          0.07243892	          0.05000004	          0.05000011	
